<?xml version="1.0" encoding="UTF-8"?>
<svg id="Layer_1" data-name="Layer 1" xmlns="http://www.w3.org/2000/svg" viewBox="0 0 318.04 108.72">
  <defs>
    <style>
      .cls-1 {
        fill: #f7b717;
      }
    </style>
  </defs>
  <g>
    <path d="M22.05,17.1l7.98,20.28L0,105.55h6.84l.49-1.33,8.29-18.81h33.77l8.14,20.14h20.78L41.81,17.1h-19.77ZM17.41,81.35l15.87-36.03,14.5,36.03h-30.37Z"/>
    <path d="M103.88,62.34h-.63l-14.07-20.02h-1.77c0,14.96,0,46.89-.13,63.23h17.62v-34.59c0-9.88,4.82-14.19,11.53-14.19,3.68,0,7.73,1.4,10.9,3.3v-17.99c-2.79-.64-5.2-.89-7.35-.89-10.01,0-15.46,8.36-16.09,21.17Z"/>
    <polygon points="191.42 42.45 184.47 42.45 184.42 42.4 184.38 42.45 184.33 42.45 183.99 42.93 153.03 80.75 153.03 7.73 135.67 7.73 135.55 108.72 137.19 108.72 151.33 91.23 151.38 91.27 161.85 78.47 174.83 105.55 193.45 105.55 173.56 64.37 191.42 42.45"/>
    <path d="M238.55,82.75c0,8.11-2.54,16.98-10.65,16.98s-8.11-7.48-8.11-11.41v-45.87h-17.48v44.61c0,11.91,4.94,19.39,17.87,19.39,8.61,0,14.95-4.56,18.75-11.15h.38v10.26h16.85v-63.11h-17.62v40.3Z"/>
    <path d="M281.36,53.85c0-5.96,3.29-10.39,8.87-10.39,6.84,0,11.15,5.32,11.15,19.13h14.07c.25-.63.25-2.15.25-3.04,0-7.47-5.07-18.25-24.46-18.25-17.23,0-22.81,11.28-22.81,19.39,0,21.16,35.61,14.83,35.61,31.94,0,6.47-5.09,11.13-13.51,11.46-11.1-.35-18.88-6.38-18.88-18.18,0-.76,0-1.65.12-2.53h-4.1c-.25,1.14-.25,2.4-.25,3.42,0,13.05,9.51,19.51,22.56,19.51.33,0,.57.03.89.02.36,0,.7-.02,1.06-.02,1.69,0,3.08-.33,4.59-.47,16.46-2.15,21.46-12.27,21.46-18.93,0-24.45-36.62-17.74-36.62-33.07Z"/>
  </g>
  <path class="cls-1" d="M318.04,10.67c-9.29,0-16.97,6.78-18.43,15.65-1.59-14.8-14.11-26.32-29.33-26.32h0c0,16.29,13.21,29.5,29.5,29.5h0c0-.05,0-.11,0-.16,10.12-.24,18.26-8.5,18.26-18.68Z"/>
</svg>